Tans_Sans_080921.ufo
<glyph name="three" format="2">
	<advance width="705"/>
	<unicode hex="0033"/>
	<outline>
		<contour>
			<point x="243" y="451" type="line"/>
			<point x="243" y="334" type="line"/>
			<point x="425" y="334" type="line"/>
			<point x="471" y="334"/>
			<point x="499" y="307"/>
			<point x="499" y="260" type="curve" smooth="yes"/>
			<point x="499" y="189" type="line" smooth="yes"/>
			<point x="499" y="142"/>
			<point x="476" y="125"/>
			<point x="425" y="125" type="curve" smooth="yes"/>
			<point x="285" y="125" type="line"/>
			<point x="226" y="125"/>
			<point x="191" y="142"/>
			<point x="191" y="202" type="curve"/>
			<point x="61" y="202" type="line"/>
			<point x="61" y="55"/>
			<point x="126" y="0"/>
			<point x="245" y="0" type="curve" smooth="yes"/>
			<point x="429" y="0" type="line" smooth="yes"/>
			<point x="574" y="0"/>
			<point x="637" y="55"/>
			<point x="637" y="160" type="curve" smooth="yes"/>
			<point x="637" y="235" type="line" smooth="yes"/>
			<point x="637" y="330"/>
			<point x="594" y="377"/>
			<point x="483" y="377" type="curve"/>
			<point x="522" y="339" type="line"/>
			<point x="522" y="443" type="line"/>
			<point x="493" y="404" type="line"/>
			<point x="579" y="404"/>
			<point x="620" y="442"/>
			<point x="620" y="528" type="curve" smooth="yes"/>
			<point x="620" y="596" type="line" smooth="yes"/>
			<point x="620" y="707"/>
			<point x="554" y="756"/>
			<point x="434" y="756" type="curve" smooth="yes"/>
			<point x="230" y="756" type="line" smooth="yes"/>
			<point x="140" y="756"/>
			<point x="74" y="707"/>
			<point x="74" y="557" type="curve"/>
			<point x="201" y="557" type="line"/>
			<point x="201" y="614"/>
			<point x="234" y="631"/>
			<point x="285" y="631" type="curve" smooth="yes"/>
			<point x="425" y="631" type="line" smooth="yes"/>
			<point x="476" y="631"/>
			<point x="483" y="613"/>
			<point x="483" y="568" type="curve" smooth="yes"/>
			<point x="483" y="515" type="line" smooth="yes"/>
			<point x="483" y="468"/>
			<point x="460" y="451"/>
			<point x="409" y="451" type="curve" smooth="yes"/>
		</contour>
	</outline>
</glyph>
<glyph name="four" format="2">
	<advance width="733"/>
	<unicode hex="0034"/>
	<outline>
		<contour>
			<point x="595" y="756" type="line"/>
			<point x="465" y="756" type="line"/>
			<point x="465" y="0" type="line"/>
			<point x="595" y="0" type="line"/>
		</contour>
		<contour>
			<point x="405" y="756" type="line"/>
			<point x="34" y="281" type="line"/>
			<point x="270" y="281" type="line"/>
			<point x="151" y="246" type="line"/>
			<point x="434" y="609" type="line"/>
			<point x="524" y="756" type="line"/>
		</contour>
		<contour>
			<point x="34" y="281" type="line"/>
			<point x="34" y="176" type="line"/>
			<point x="713" y="176" type="line"/>
			<point x="713" y="291" type="line"/>
		</contour>
	</outline>
</glyph>
<glyph name="five" format="2">
	<advance width="709"/>
	<unicode hex="0035"/>
	<outline>
		<contour>
			<point x="0" y="0"/>
		</contour>
	</outline>
</glyph>
<glyph name="six" format="2">
	<advance width="718"/>
	<unicode hex="0036"/>
	<outline>
		<contour>
			<point x="458" y="445" type="curve" smooth="yes"/>
			<point x="206" y="447" type="line" smooth="yes"/>
			<point x="136" y="448"/>
			<point x="70" y="395"/>
			<point x="70" y="284" type="curve" smooth="yes"/>
			<point x="70" y="160" type="line" smooth="yes"/>
			<point x="70" y="49"/>
			<point x="136" y="0"/>
			<point x="256" y="0" type="curve" smooth="yes"/>
			<point x="458" y="0" type="line" smooth="yes"/>
			<point x="578" y="0"/>
			<point x="641" y="49"/>
			<point x="641" y="160" type="curve" smooth="yes"/>
			<point x="641" y="285" type="line" smooth="yes"/>
			<point x="641" y="396"/>
			<point x="578" y="444"/>
		</contour>
		<contour>
			<point x="446" y="125" type="curve"/>
			<point x="205" y="125" type="line"/>
			<point x="206" y="321" type="line"/>
			<point x="519" y="321" type="line"/>
			<point x="520" y="199" type="line" smooth="yes"/>
			<point x="520" y="152"/>
			<point x="497" y="125"/>
		</contour>
		<contour>
			<point x="206" y="281" type="line"/>
			<point x="206" y="567" type="line" smooth="yes"/>
			<point x="206" y="612"/>
			<point x="239" y="629"/>
			<point x="280" y="629" type="curve" smooth="yes"/>
			<point x="516" y="629" type="line"/>
			<point x="516" y="520" type="line"/>
			<point x="643" y="520" type="line"/>
			<point x="643" y="598" type="line" smooth="yes"/>
			<point x="643" y="683"/>
			<point x="605" y="756"/>
			<point x="463" y="756" type="curve" smooth="yes"/>
			<point x="275" y="756" type="line" smooth="yes"/>
			<point x="137" y="756"/>
			<point x="70" y="685"/>
			<point x="70" y="526" type="curve"/>
			<point x="70" y="281" type="line"/>
		</contour>
	</outline>
</glyph>
<glyph name="eight" format="2">
	<advance width="748"/>
	<unicode hex="0038"/>
	<outline>
		<contour>
			<point x="81" y="528" type="line" smooth="yes"/>
			<point x="81" y="442"/>
			<point x="122" y="405"/>
			<point x="208" y="405" type="curve"/>
			<point x="181" y="451" type="line"/>
			<point x="181" y="339" type="line"/>
			<point x="208" y="377" type="line"/>
			<point x="97" y="380"/>
			<point x="68" y="330"/>
			<point x="68" y="235" type="curve" smooth="yes"/>
			<point x="68" y="160" type="line" smooth="yes"/>
			<point x="68" y="55"/>
			<point x="133" y="0"/>
			<point x="282" y="0" type="curve" smooth="yes"/>
			<point x="472" y="0" type="line" smooth="yes"/>
			<point x="617" y="0"/>
			<point x="680" y="55"/>
			<point x="680" y="160" type="curve" smooth="yes"/>
			<point x="680" y="235" type="line" smooth="yes"/>
			<point x="680" y="330"/>
			<point x="637" y="377"/>
			<point x="526" y="377" type="curve"/>
			<point x="565" y="339" type="line"/>
			<point x="565" y="443" type="line"/>
			<point x="536" y="404" type="line"/>
			<point x="622" y="404"/>
			<point x="663" y="442"/>
			<point x="663" y="528" type="curve" smooth="yes"/>
			<point x="663" y="596" type="line" smooth="yes"/>
			<point x="663" y="707"/>
			<point x="597" y="756"/>
			<point x="477" y="756" type="curve" smooth="yes"/>
			<point x="267" y="756" type="line" smooth="yes"/>
			<point x="147" y="756"/>
			<point x="81" y="707"/>
			<point x="81" y="596" type="curve" smooth="yes"/>
		</contour>
		<contour>
			<point x="292" y="631" type="curve"/>
			<point x="452" y="631" type="line"/>
			<point x="503" y="631"/>
			<point x="526" y="614"/>
			<point x="526" y="568" type="curve"/>
			<point x="526" y="515" type="line" smooth="yes"/>
			<point x="526" y="468"/>
			<point x="503" y="451"/>
			<point x="452" y="451" type="curve" smooth="yes"/>
			<point x="292" y="451" type="line"/>
			<point x="241" y="451"/>
			<point x="218" y="468"/>
			<point x="218" y="515" type="curve"/>
			<point x="218" y="567" type="line" smooth="yes"/>
			<point x="218" y="614"/>
			<point x="241" y="631"/>
		</contour>
		<contour>
			<point x="281" y="334" type="curve"/>
			<point x="463" y="334" type="line" smooth="yes"/>
			<point x="514" y="334"/>
			<point x="544" y="316"/>
			<point x="543" y="270" type="curve" smooth="yes"/>
			<point x="542" y="189" type="line" smooth="yes"/>
			<point x="541" y="142"/>
			<point x="519" y="125"/>
			<point x="468" y="125" type="curve" smooth="yes"/>
			<point x="274" y="125" type="line" smooth="yes"/>
			<point x="225" y="125"/>
			<point x="209" y="142"/>
			<point x="208" y="189" type="curve" smooth="yes"/>
			<point x="207" y="270" type="line" smooth="yes"/>
			<point x="206" y="317"/>
			<point x="230" y="334"/>
		</contour>
	</outline>
</glyph>
<glyph name="nine" format="2">
	<advance width="709"/>
	<unicode hex="0039"/>
	<outline>
		<contour>
			<point x="245" y="276" type="curve"/>
			<point x="498" y="274" type="line" smooth="yes"/>
			<point x="568" y="274"/>
			<point x="634" y="326"/>
			<point x="634" y="437" type="curve" smooth="yes"/>
			<point x="634" y="596" type="line" smooth="yes"/>
			<point x="634" y="707"/>
			<point x="568" y="756"/>
			<point x="448" y="756" type="curve" smooth="yes"/>
			<point x="245" y="756" type="line" smooth="yes"/>
			<point x="125" y="756"/>
			<point x="62" y="707"/>
			<point x="62" y="596" type="curve" smooth="yes"/>
			<point x="62" y="436" type="line" smooth="yes"/>
			<point x="62" y="325"/>
			<point x="125" y="276"/>
		</contour>
		<contour>
			<point x="257" y="631" type="curve"/>
			<point x="499" y="631" type="line"/>
			<point x="498" y="400" type="line"/>
			<point x="184" y="400" type="line"/>
			<point x="183" y="567" type="line" smooth="yes"/>
			<point x="183" y="614"/>
			<point x="206" y="631"/>
		</contour>
		<contour>
			<point x="498" y="440" type="line"/>
			<point x="498" y="127" type="line"/>
			<point x="109" y="127" type="line"/>
			<point x="109" y="0" type="line"/>
			<point x="429" y="0" type="line" smooth="yes"/>
			<point x="567" y="0"/>
			<point x="634" y="71"/>
			<point x="634" y="230" type="curve"/>
			<point x="634" y="440" type="line"/>
		</contour>
	</outline>
</glyph>
<glyph name="A" format="2">
	<advance width="683"/>
	<unicode hex="0041"/>
	<outline>
		<contour>
			<point x="196" y="324" type="line"/>
			<point x="196" y="200" type="line"/>
			<point x="484" y="200" type="line"/>
			<point x="484" y="324" type="line"/>
		</contour>
		<contour>
			<point x="669" y="0" type="line"/>
			<point x="456" y="756" type="line"/>
			<point x="226" y="756" type="line"/>
			<point x="10" y="0" type="line"/>
			<point x="152" y="0" type="line"/>
			<point x="341" y="673" type="line"/>
			<point x="282" y="630" type="line"/>
			<point x="399" y="630" type="line"/>
			<point x="339" y="673" type="line"/>
			<point x="527" y="0" type="line"/>
		</contour>
	</outline>
</glyph>
<glyph name="B" format="2">
  <advance width="733"/>
  <unicode hex="0042"/>
  <outline>
    <contour>
      <point x="80.5302" y="0" type="line"/>
      <point x="212.759" y="0" type="line"/>
      <point x="212.759" y="755.972" type="line"/>
      <point x="80.5302" y="755.972" type="line"/>
    </contour>
    <contour>
      <point x="516.984" y="404.985" type="curve"/>
      <point x="516.984" y="420.812" type="line"/>
      <point x="612.427" y="424.536"/>
      <point x="646.23" y="469.224"/>
      <point x="646.23" y="565.117" type="curve" smooth="yes"/>
      <point x="646.23" y="695.457"/>
      <point x="607.456" y="755.972"/>
      <point x="451.367" y="755.972" type="curve" smooth="yes"/>
      <point x="169.014" y="755.972" type="line"/>
      <point x="169.014" y="629.356" type="line"/>
      <point x="512.013" y="629.356" type="line"/>
      <point x="512.013" y="555.807" type="line" smooth="yes"/>
      <point x="512.013" y="481.327"/>
      <point x="501.077" y="444.087"/>
      <point x="411.599" y="444.087" type="curve" smooth="yes"/>
      <point x="137.2" y="444.087" type="line"/>
      <point x="137.2" y="317.471" type="line"/>
      <point x="522.949" y="316.54" type="line"/>
      <point x="522.949" y="229.957" type="line" smooth="yes"/>
      <point x="522.949" y="160.132"/>
      <point x="509.03" y="125.685"/>
      <point x="406.628" y="125.685" type="curve" smooth="yes"/>
      <point x="158.078" y="125.685" type="line"/>
      <point x="159.072" y="0" type="line"/>
      <point x="444.407" y="0.931" type="line" smooth="yes"/>
      <point x="616.404" y="1.862"/>
      <point x="663.131" y="89.376"/>
      <point x="659.155" y="259.749" type="curve" smooth="yes"/>
      <point x="657.166" y="360.297"/>
      <point x="622.369" y="404.985"/>
    </contour>
  </outline>
</glyph>
<glyph name="E" format="2">
	<advance width="649"/>
	<unicode hex="0045"/>
	<outline>
		<contour>
			<point x="213" y="0" type="line"/>
			<point x="213" y="756" type="line"/>
			<point x="83" y="756" type="line"/>
			<point x="83" y="0" type="line"/>
		</contour>
		<contour>
			<point x="593" y="127" type="line"/>
			<point x="213" y="127" type="line"/>
			<point x="213" y="0" type="line"/>
			<point x="593" y="0" type="line"/>
		</contour>
		<contour>
			<point x="213" y="322" type="line"/>
			<point x="514" y="322" type="line"/>
			<point x="514" y="449" type="line"/>
			<point x="213" y="449" type="line"/>
		</contour>
		<contour>
			<point x="213" y="629" type="line"/>
			<point x="592" y="629" type="line"/>
			<point x="592" y="756" type="line"/>
			<point x="213" y="756" type="line"/>
		</contour>
	</outline>
</glyph>
<glyph name="F" format="2">
	<advance width="626"/>
	<unicode hex="0046"/>
	<outline>
		<contour>
			<point x="213" y="756" type="line"/>
			<point x="83" y="756" type="line"/>
			<point x="83" y="0" type="line"/>
			<point x="213" y="0" type="line"/>
		</contour>
		<contour>
			<point x="595" y="629" type="line"/>
			<point x="595" y="756" type="line"/>
			<point x="213" y="756" type="line"/>
			<point x="213" y="629" type="line"/>
		</contour>
		<contour>
			<point x="213" y="431" type="line"/>
			<point x="213" y="304" type="line"/>
			<point x="520" y="304" type="line"/>
			<point x="520" y="431" type="line"/>
		</contour>
	</outline>
</glyph>
<glyph name="H" format="2">
	<advance width="776"/>
	<unicode hex="0048"/>
	<outline>
		<contour>
			<point x="213" y="457" type="line"/>
			<point x="213" y="330" type="line"/>
			<point x="563" y="330" type="line"/>
			<point x="563" y="457" type="line"/>
		</contour>
		<contour>
			<point x="213" y="756" type="line"/>
			<point x="83" y="756" type="line"/>
			<point x="83" y="0" type="line"/>
			<point x="213" y="0" type="line"/>
		</contour>
		<contour>
			<point x="693" y="756" type="line"/>
			<point x="563" y="756" type="line"/>
			<point x="563" y="0" type="line"/>
			<point x="693" y="0" type="line"/>
		</contour>
	</outline>
</glyph>
<glyph name="I" format="2">
	<advance width="626"/>
	<unicode hex="0049"/>
	<outline>
		<contour>
			<point x="377" y="755" type="line"/>
			<point x="247" y="755" type="line"/>
			<point x="247" y="0" type="line"/>
			<point x="377" y="0" type="line"/>
		</contour>
		<contour>
			<point x="83" y="635" type="line"/>
			<point x="247" y="635" type="line"/>
			<point x="247" y="755" type="line"/>
			<point x="83" y="755" type="line"/>
		</contour>
		<contour>
			<point x="377" y="635" type="line"/>
			<point x="543" y="635" type="line"/>
			<point x="543" y="755" type="line"/>
			<point x="377" y="755" type="line"/>
		</contour>
		<contour>
			<point x="543" y="120" type="line"/>
			<point x="377" y="120" type="line"/>
			<point x="377" y="0" type="line"/>
			<point x="543" y="0" type="line"/>
		</contour>
		<contour>
			<point x="83" y="120" type="line"/>
			<point x="83" y="0" type="line"/>
			<point x="247" y="0" type="line"/>
			<point x="247" y="120" type="line"/>
		</contour>
	</outline>
</glyph>
<glyph name="K" format="2">
	<advance width="704"/>
	<unicode hex="004B"/>
	<outline>
		<contour>
			<point x="83" y="0" type="line"/>
			<point x="213" y="0" type="line"/>
			<point x="213" y="325" type="line"/>
			<point x="307" y="325" type="line"/>
			<point x="546" y="-1" type="line"/>
			<point x="692" y="-1" type="line"/>
			<point x="402" y="393" type="line"/>
			<point x="662" y="756" type="line"/>
			<point x="518" y="756" type="line"/>
			<point x="292" y="446" type="line"/>
			<point x="213" y="446" type="line"/>
			<point x="213" y="756" type="line"/>
			<point x="83" y="756" type="line"/>
		</contour>
	</outline>
</glyph>
<glyph name="M" format="2">
	<advance width="884"/>
	<unicode hex="004D"/>
	<outline>
		<contour>
			<point x="83" y="0" type="line"/>
			<point x="211" y="0" type="line"/>
			<point x="211" y="675" type="line"/>
			<point x="166" y="630" type="line"/>
			<point x="270" y="630" type="line"/>
			<point x="211" y="673" type="line"/>
			<point x="364" y="193" type="line"/>
			<point x="520" y="193" type="line"/>
			<point x="672" y="673" type="line"/>
			<point x="613" y="630" type="line"/>
			<point x="718" y="630" type="line"/>
			<point x="673" y="675" type="line"/>
			<point x="673" y="0" type="line"/>
			<point x="801" y="0" type="line"/>
			<point x="801" y="756" type="line"/>
			<point x="580" y="756" type="line"/>
			<point x="441" y="290" type="line"/>
			<point x="500" y="322" type="line"/>
			<point x="393" y="322" type="line"/>
			<point x="452" y="290" type="line"/>
			<point x="304" y="756" type="line"/>
			<point x="83" y="756" type="line"/>
		</contour>
	</outline>
</glyph>
<glyph name="N" format="2">
	<advance width="790"/>
	<unicode hex="004E"/>
	<anchor x="393" y="756" name="top"/>
	<anchor x="379" y="0" name="bottom"/>
	<outline>
		<contour>
			<point x="85" y="0" type="line"/>
			<point x="205" y="0" type="line"/>
			<point x="207" y="663" type="line"/>
			<point x="164" y="630" type="line"/>
			<point x="270" y="630" type="line"/>
			<point x="200" y="660" type="line"/>
			<point x="484" y="0" type="line"/>
			<point x="700" y="0" type="line"/>
			<point x="700" y="756" type="line"/>
			<point x="579" y="756" type="line"/>
			<point x="579" y="94" type="line"/>
			<point x="606" y="132" type="line"/>
			<point x="501" y="132" type="line"/>
			<point x="589" y="97" type="line"/>
			<point x="303" y="756" type="line"/>
			<point x="85" y="756" type="line"/>
		</contour>
	</outline>
</glyph>
<glyph name="O" format="2">
	<advance width="794"/>
	<unicode hex="004F"/>
	<outline>
		<contour>
			<point x="211" y="127" type="line"/>
			<point x="211" y="508" type="line" smooth="yes"/>
			<point x="211" y="607"/>
			<point x="253" y="629"/>
			<point x="327" y="629" type="curve" smooth="yes"/>
			<point x="583" y="629" type="line"/>
			<point x="583" y="248" type="line" smooth="yes"/>
			<point x="583" y="149"/>
			<point x="541" y="127"/>
			<point x="467" y="127" type="curve" smooth="yes"/>
		</contour>
		<contour>
			<point x="719" y="525" type="line" smooth="yes"/>
			<point x="719" y="684"/>
			<point x="652" y="756"/>
			<point x="516" y="756" type="curve" smooth="yes"/>
			<point x="279" y="756" type="line" smooth="yes"/>
			<point x="170" y="756"/>
			<point x="75" y="663"/>
			<point x="75" y="526" type="curve" smooth="yes"/>
			<point x="75" y="230" type="line" smooth="yes"/>
			<point x="75" y="73"/>
			<point x="140" y="0"/>
			<point x="279" y="0" type="curve" smooth="yes"/>
			<point x="515" y="0" type="line" smooth="yes"/>
			<point x="634" y="0"/>
			<point x="719" y="83"/>
			<point x="719" y="230" type="curve" smooth="yes"/>
		</contour>
	</outline>
</glyph>
<glyph name="P" format="2">
	<advance width="715"/>
	<unicode hex="0050"/>
	<outline>
		<contour>
			<point x="219" y="0" type="line"/>
			<point x="219" y="680" type="line"/>
			<point x="503" y="680" type="line"/>
			<point x="503" y="520" type="line" smooth="yes"/>
			<point x="503" y="417"/>
			<point x="485" y="400"/>
			<point x="354" y="400" type="curve" smooth="yes"/>
			<point x="199" y="400" type="line"/>
			<point x="199" y="269" type="line"/>
			<point x="400" y="269" type="line" smooth="yes"/>
			<point x="581" y="269"/>
			<point x="645" y="366"/>
			<point x="645" y="482" type="curve" smooth="yes"/>
			<point x="645" y="647" type="line" smooth="yes"/>
			<point x="645" y="764"/>
			<point x="603" y="812"/>
			<point x="430" y="812" type="curve" smooth="yes"/>
			<point x="81" y="812" type="line"/>
			<point x="81" y="0" type="line"/>
		</contour>
	</outline>
</glyph>
<glyph name="Q" format="2">
	<advance width="864"/>
	<unicode hex="0051"/>
	<outline>
		<contour>
			<point x="591" y="94" type="line"/>
			<point x="456" y="94" type="line"/>
			<point x="545" y="-106" type="line"/>
			<point x="692" y="-106" type="line"/>
		</contour>
		<component base="O"/>
	</outline>
</glyph>
<glyph name="R" format="2">
	<advance width="667"/>
	<unicode hex="0052"/>
	<outline>
		<contour>
			<point x="87.7158" y="0" type="line"/>
			<point x="211.525" y="0" type="line"/>
			<point x="211.525" y="755.972" type="line"/>
			<point x="87.7158" y="755.972" type="line"/>
		</contour>
		<contour>
			<point x="493" y="336" type="curve"/>
			<point x="504" y="336" type="line"/>
			<point x="576" y="337"/>
			<point x="620" y="405"/>
			<point x="620" y="476" type="curve" smooth="yes"/>
			<point x="620" y="601" type="line" smooth="yes"/>
			<point x="620" y="700"/>
			<point x="542" y="756"/>
			<point x="433" y="756" type="curve" smooth="yes"/>
			<point x="165.911" y="755.972" type="line"/>
			<point x="165.911" y="629.356" type="line"/>
			<point x="494" y="629" type="line"/>
			<point x="494" y="545" type="line" smooth="yes"/>
			<point x="494" y="470"/>
			<point x="484" y="440"/>
			<point x="409" y="440" type="curve" smooth="yes"/>
			<point x="197.562" y="440.363" type="line"/>
			<point x="197.562" y="317.471" type="line"/>
			<point x="354" y="317" type="line"/>
			<point x="518.722" y="0" type="line"/>
			<point x="518.722" y="0"/>
			<point x="674.183" y="-0.931"/>
			<point x="674.183" y="-0.931" type="curve"/>
			<point x="674.183" y="-0.931"/>
			<point x="493" y="325"/>
		</contour>
	</outline>
</glyph>
<glyph name="S" format="2">
	<advance width="693"/>
	<unicode hex="0053"/>
	<outline>
		<contour>
			<point x="626.692" y="529.289" type="line"/>
			<point x="626.692" y="529.289"/>
			<point x="625.755" y="599.204"/>
			<point x="625.755" y="598.272" type="curve"/>
			<point x="625.755" y="708.271"/>
			<point x="562.066" y="755.814"/>
			<point x="452.484" y="755.814" type="curve" smooth="yes"/>
			<point x="253.925" y="755.814" type="line" smooth="yes"/>
			<point x="141.533" y="755.814"/>
			<point x="65.6682" y="696.153"/>
			<point x="68.478" y="556.323" type="curve"/>
			<point x="68.478" y="556.323"/>
			<point x="68.478" y="490.137"/>
			<point x="68.478" y="443.527" type="curve" smooth="yes"/>
			<point x="68.478" y="417.425"/>
			<point x="85.3368" y="386.662"/>
			<point x="121.864" y="376.408" type="curve" smooth="yes"/>
			<point x="220.207" y="347.51"/>
			<point x="401.908" y="309.29"/>
			<point x="509.617" y="287.849" type="curve"/>
			<point x="509.617" y="203.019" type="line"/>
			<point x="508.68" y="146.155"/>
			<point x="473.089" y="123.782"/>
			<point x="407.527" y="123.782" type="curve" smooth="yes"/>
			<point x="351.331" y="123.782"/>
			<point x="195.856" y="123.782"/>
			<point x="197.729" y="124.714" type="curve"/>
			<point x="197.729" y="228.188" type="line"/>
			<point x="197.729" y="228.188"/>
			<point x="66.6048" y="228.188"/>
			<point x="66.6048" y="228.188" type="curve"/>
			<point x="66.6048" y="164.799" type="line" smooth="yes"/>
			<point x="66.6048" y="82.7652"/>
			<point x="154.645" y="-0.20061"/>
			<point x="259.544" y="-0.20061" type="curve" smooth="yes"/>
			<point x="447.801" y="-0.20061" type="line" smooth="yes"/>
			<point x="583.608" y="-0.20061"/>
			<point x="636.994" y="83.6974"/>
			<point x="638.867" y="219.799" type="curve" smooth="yes"/>
			<point x="639.804" y="297.171" type="line" smooth="yes"/>
			<point x="639.804" y="331.663"/>
			<point x="637.931" y="368.018"/>
			<point x="583.608" y="383.866" type="curve" smooth="yes"/>
			<point x="530.222" y="399.713"/>
			<point x="236.129" y="459.374"/>
			<point x="182.743" y="473.357" type="curve"/>
			<point x="182.743" y="480.815"/>
			<point x="181.807" y="536.747"/>
			<point x="182.743" y="544.204" type="curve" smooth="yes"/>
			<point x="187.426" y="612.255"/>
			<point x="208.031" y="634.628"/>
			<point x="287.642" y="634.628" type="curve" smooth="yes"/>
			<point x="503.997" y="634.628" type="line"/>
			<point x="503.997" y="527.425" type="line"/>
		</contour>
	</outline>
</glyph>
<glyph name="U" format="2">
	<advance width="730"/>
	<unicode hex="0055"/>
	<outline>
		<contour>
			<point x="643" y="756" type="line"/>
			<point x="513" y="756" type="line"/>
			<point x="515" y="235" type="line" smooth="yes"/>
			<point x="515" y="161"/>
			<point x="499" y="120"/>
			<point x="429" y="120" type="curve" smooth="yes"/>
			<point x="217" y="120" type="line"/>
			<point x="217" y="756" type="line"/>
			<point x="87" y="756" type="line"/>
			<point x="87" y="235" type="line" smooth="yes"/>
			<point x="87" y="28"/>
			<point x="164" y="-11"/>
			<point x="330" y="-11" type="curve" smooth="yes"/>
			<point x="339" y="-11"/>
			<point x="380" y="-11"/>
			<point x="392" y="-11" type="curve" smooth="yes"/>
			<point x="559" y="-11"/>
			<point x="643" y="52"/>
			<point x="643" y="235" type="curve" smooth="yes"/>
		</contour>
	</outline>
</glyph>
<glyph name="V" format="2">
	<advance width="719"/>
	<unicode hex="0056"/>
	<outline>
		<contour>
			<point x="689" y="757" type="line"/>
			<point x="551" y="757" type="line"/>
			<point x="355" y="84" type="line"/>
			<point x="415" y="127" type="line"/>
			<point x="298" y="127" type="line"/>
			<point x="360" y="84" type="line"/>
			<point x="168" y="757" type="line"/>
			<point x="30" y="757" type="line"/>
			<point x="240" y="1" type="line"/>
			<point x="464" y="1" type="line"/>
		</contour>
	</outline>
</glyph>
<glyph name="W" format="2">
	<advance width="888"/>
	<unicode hex="0057"/>
	<outline>
		<contour>
			<point x="30" y="756" type="line"/>
			<point x="134" y="0" type="line"/>
			<point x="376" y="0" type="line"/>
			<point x="445" y="527" type="line"/>
			<point x="402" y="511" type="line"/>
			<point x="504" y="511" type="line"/>
			<point x="453" y="527" type="line"/>
			<point x="512" y="0" type="line"/>
			<point x="754" y="0" type="line"/>
			<point x="858" y="756" type="line"/>
			<point x="719" y="756" type="line"/>
			<point x="642" y="107" type="line"/>
			<point x="693" y="120" type="line"/>
			<point x="590" y="120" type="line"/>
			<point x="633" y="107" type="line"/>
			<point x="553" y="645" type="line"/>
			<point x="343" y="645" type="line"/>
			<point x="255" y="107" type="line"/>
			<point x="300" y="120" type="line"/>
			<point x="195" y="120" type="line"/>
			<point x="246" y="107" type="line"/>
			<point x="168" y="756" type="line"/>
		</contour>
	</outline>
</glyph>
<glyph name="X" format="2">
	<advance width="714"/>
	<unicode hex="0058"/>
	<outline>
		<contour>
			<point x="12" y="0" type="line"/>
			<point x="165" y="0" type="line"/>
			<point x="335" y="330" type="line"/>
			<point x="372" y="330" type="line"/>
			<point x="550" y="0" type="line"/>
			<point x="702" y="0" type="line"/>
			<point x="463" y="448" type="line"/>
			<point x="463" y="351" type="line"/>
			<point x="678" y="756" type="line"/>
			<point x="540" y="756" type="line"/>
			<point x="372" y="454" type="line"/>
			<point x="335" y="454" type="line"/>
			<point x="178" y="756" type="line"/>
			<point x="40" y="756" type="line"/>
			<point x="241" y="348" type="line"/>
			<point x="241" y="445" type="line"/>
		</contour>
	</outline>
</glyph>
<glyph name="Y" format="2">
	<advance width="634"/>
	<unicode hex="0059"/>
	<outline>
		<contour>
			<point x="12" y="756" type="line"/>
			<point x="252" y="292" type="line"/>
			<point x="382" y="292" type="line"/>
			<point x="622" y="756" type="line"/>
			<point x="486" y="756" type="line"/>
			<point x="316" y="385" type="line"/>
			<point x="372" y="425" type="line"/>
			<point x="270" y="425" type="line"/>
			<point x="326" y="385" type="line"/>
			<point x="148" y="756" type="line"/>
		</contour>
		<contour>
			<point x="382" y="292" type="line"/>
			<point x="252" y="292" type="line"/>
			<point x="252" y="0" type="line"/>
			<point x="382" y="0" type="line"/>
		</contour>
	</outline>
</glyph>
<glyph name="Z" format="2">
	<advance width="667"/>
	<unicode hex="005A"/>
	<outline>
		<contour>
			<point x="622" y="0" type="line"/>
			<point x="622" y="119" type="line"/>
			<point x="148" y="119" type="line"/>
			<point x="193" y="74" type="line"/>
			<point x="193" y="187" type="line"/>
			<point x="156" y="87" type="line"/>
			<point x="653" y="596" type="line"/>
			<point x="622" y="514" type="line"/>
			<point x="622" y="754" type="line"/>
			<point x="82" y="754" type="line"/>
			<point x="82" y="635" type="line"/>
			<point x="535" y="635" type="line"/>
			<point x="490" y="680" type="line"/>
			<point x="490" y="564" type="line"/>
			<point x="531" y="664" type="line"/>
			<point x="36" y="166" type="line"/>
			<point x="56" y="245" type="line"/>
			<point x="56" y="0" type="line"/>
		</contour>
	</outline>
</glyph>
<glyph name="b" format="2">
	<advance width="686"/>
	<unicode hex="0062"/>
	<outline>
		<contour>
			<point x="82" y="868" type="line"/>
			<point x="82" y="0" type="line"/>
			<point x="187" y="0" type="line"/>
			<point x="208" y="117" type="line"/>
			<point x="208" y="354" type="line"/>
			<point x="201" y="447" type="line"/>
			<point x="201" y="868" type="line"/>
		</contour>
		<contour>
			<point x="171" y="119" type="line"/>
			<point x="187" y="0" type="line"/>
			<point x="187" y="0"/>
			<point x="343" y="0"/>
			<point x="414" y="0" type="curve"/>
			<point x="596" y="0"/>
			<point x="617" y="120"/>
			<point x="617" y="278" type="curve"/>
			<point x="617" y="330" type="line"/>
			<point x="617" y="475"/>
			<point x="540" y="567"/>
			<point x="414" y="567" type="curve"/>
			<point x="372" y="567" type="line"/>
			<point x="282" y="567"/>
			<point x="240" y="513"/>
			<point x="218" y="447" type="curve"/>
			<point x="201" y="447" type="line"/>
			<point x="208" y="354" type="line"/>
			<point x="208" y="410"/>
			<point x="268" y="436"/>
			<point x="324" y="436" type="curve" smooth="yes"/>
			<point x="488" y="436" type="line"/>
			<point x="488" y="245" type="line" smooth="yes"/>
			<point x="488" y="150"/>
			<point x="433" y="119"/>
			<point x="365" y="119" type="curve" smooth="yes"/>
		</contour>
	</outline>
</glyph>
<glyph name="c" format="2">
	<advance width="550"/>
	<unicode hex="0063"/>
	<outline>
		<contour>
			<point x="254" y="-3" type="line" smooth="yes"/>
			<point x="127" y="-3"/>
			<point x="51" y="66"/>
			<point x="51" y="196" type="curve" smooth="yes"/>
			<point x="51" y="303" type="line" smooth="yes"/>
			<point x="51" y="452"/>
			<point x="141" y="556"/>
			<point x="283" y="556" type="curve" smooth="yes"/>
			<point x="502" y="556" type="line"/>
			<point x="502" y="432" type="line"/>
			<point x="287" y="432" type="line" smooth="yes"/>
			<point x="213" y="432"/>
			<point x="180" y="402"/>
			<point x="180" y="330" type="curve" smooth="yes"/>
			<point x="180" y="119" type="line"/>
			<point x="501" y="119" type="line"/>
			<point x="501" y="-3" type="line"/>
		</contour>
	</outline>
</glyph>
<glyph name="d" format="2">
	<advance width="687"/>
	<unicode hex="0064"/>
	<outline>
		<contour>
			<point x="605" y="778" type="line"/>
			<point x="476" y="778" type="line"/>
			<point x="476" y="172" type="line"/>
			<point x="481" y="125" type="line"/>
			<point x="481" y="0" type="line"/>
			<point x="605" y="0" type="line"/>
		</contour>
		<contour>
			<point x="174" y="354" type="line" smooth="yes"/>
			<point x="174" y="410"/>
			<point x="218" y="436"/>
			<point x="274" y="436" type="curve"/>
			<point x="476" y="436" type="line"/>
			<point x="476" y="349" type="line"/>
			<point x="485" y="556" type="line"/>
			<point x="247" y="554" type="line"/>
			<point x="95" y="554"/>
			<point x="51" y="439"/>
			<point x="51" y="302" type="curve"/>
			<point x="52" y="209" type="line"/>
			<point x="52" y="67"/>
			<point x="129" y="-10"/>
			<point x="257" y="-10" type="curve"/>
			<point x="321" y="-10" type="line"/>
			<point x="423" y="-2"/>
			<point x="443" y="42"/>
			<point x="463" y="110" type="curve"/>
			<point x="545" y="110" type="line"/>
			<point x="476" y="221" type="line"/>
			<point x="476" y="131"/>
			<point x="405" y="118"/>
			<point x="319" y="119" type="curve"/>
			<point x="174" y="119" type="line"/>
		</contour>
	</outline>
</glyph>
<glyph name="e" format="2">
	<advance width="619"/>
	<unicode hex="0065"/>
	<outline>
		<contour>
			<point x="71" y="325" type="line"/>
			<point x="71" y="221" type="line"/>
			<point x="567" y="221" type="line"/>
			<point x="567" y="325" type="line"/>
		</contour>
		<contour>
			<point x="517" y="-4" type="line"/>
			<point x="517" y="119" type="line"/>
			<point x="180" y="119" type="line"/>
			<point x="180" y="341" type="line" smooth="yes"/>
			<point x="180" y="413"/>
			<point x="213" y="449"/>
			<point x="288" y="449" type="curve" smooth="yes"/>
			<point x="444" y="449" type="line"/>
			<point x="444" y="306" type="line"/>
			<point x="567" y="221" type="line"/>
			<point x="567" y="337" type="line" smooth="yes"/>
			<point x="567" y="503"/>
			<point x="484" y="566"/>
			<point x="350" y="566" type="curve" smooth="yes"/>
			<point x="287" y="566" type="line" smooth="yes"/>
			<point x="141" y="566"/>
			<point x="51" y="462"/>
			<point x="51" y="314" type="curve" smooth="yes"/>
			<point x="51" y="196" type="line" smooth="yes"/>
			<point x="51" y="68"/>
			<point x="127" y="-4"/>
			<point x="254" y="-4" type="curve" smooth="yes"/>
		</contour>
	</outline>
</glyph>
<glyph name="g" format="2">
	<advance width="595"/>
	<unicode hex="0067"/>
	<outline>
		<contour>
			<point x="282" y="144" type="line"/>
			<point x="375" y="144" type="line" smooth="yes"/>
			<point x="490" y="144"/>
			<point x="553" y="202"/>
			<point x="553" y="322" type="curve" smooth="yes"/>
			<point x="553" y="629" type="line"/>
			<point x="443" y="629" type="line"/>
			<point x="443" y="399" type="line"/>
			<point x="468" y="487" type="line"/>
			<point x="426" y="487" type="line"/>
			<point x="426" y="545"/>
			<point x="383" y="566"/>
			<point x="312" y="566" type="curve" smooth="yes"/>
			<point x="224" y="566" type="line" smooth="yes"/>
			<point x="94" y="566"/>
			<point x="44" y="517"/>
			<point x="44" y="388" type="curve" smooth="yes"/>
			<point x="44" y="335" type="line" smooth="yes"/>
			<point x="44" y="211"/>
			<point x="110" y="164"/>
			<point x="282" y="164" type="curve"/>
		</contour>
		<contour>
			<point x="176" y="-83" type="curve" smooth="yes"/>
			<point x="555" y="-83" type="line"/>
			<point x="555" y="33" type="line"/>
			<point x="169" y="34" type="line"/>
			<point x="169" y="75" type="line"/>
			<point x="169" y="127"/>
			<point x="189" y="144"/>
			<point x="249" y="144" type="curve" smooth="yes"/>
			<point x="282" y="144" type="line"/>
			<point x="282" y="194" type="line"/>
			<point x="176" y="194" type="line"/>
			<point x="176" y="156" type="line"/>
			<point x="85" y="156"/>
			<point x="40" y="121"/>
			<point x="40" y="61" type="curve" smooth="yes"/>
			<point x="40" y="13" type="line" smooth="yes"/>
			<point x="40" y="-57"/>
			<point x="85" y="-83"/>
		</contour>
		<contour>
			<point x="169" y="261" type="line"/>
			<point x="169" y="400" type="line" smooth="yes"/>
			<point x="169" y="433"/>
			<point x="187" y="451"/>
			<point x="219" y="451" type="curve" smooth="yes"/>
			<point x="421" y="451" type="line"/>
			<point x="421" y="312" type="line" smooth="yes"/>
			<point x="421" y="279"/>
			<point x="404" y="261"/>
			<point x="371" y="261" type="curve" smooth="yes"/>
		</contour>
	</outline>
</glyph>
<glyph name="h" format="2">
	<advance width="626"/>
	<unicode hex="0068"/>
	<outline>
		<contour>
			<point x="51" y="778" type="line"/>
			<point x="51" y="0" type="line"/>
			<point x="177" y="0" type="line"/>
			<point x="177" y="362" type="line"/>
			<point x="161" y="432" type="line"/>
			<point x="160" y="778" type="line"/>
		</contour>
		<contour>
			<point x="433" y="321" type="line"/>
			<point x="433" y="0" type="line"/>
			<point x="556" y="0" type="line"/>
			<point x="556" y="380" type="line" smooth="yes"/>
			<point x="556" y="498"/>
			<point x="498" y="559"/>
			<point x="377" y="559" type="curve" smooth="yes"/>
			<point x="335" y="559" type="line" smooth="yes"/>
			<point x="234" y="559"/>
			<point x="198" y="507"/>
			<point x="178" y="432" type="curve"/>
			<point x="96" y="432" type="line"/>
			<point x="177" y="329" type="line"/>
			<point x="177" y="419"/>
			<point x="245" y="432"/>
			<point x="329" y="432" type="curve" smooth="yes"/>
			<point x="432" y="432" type="line"/>
		</contour>
	</outline>
</glyph>
<glyph name="m" format="2">
	<advance width="986"/>
	<unicode hex="006D"/>
	<outline>
		<contour>
			<point x="75" y="556" type="line"/>
			<point x="75" y="0" type="line"/>
			<point x="201" y="0" type="line"/>
			<point x="201" y="329" type="line"/>
			<point x="185" y="432" type="line"/>
			<point x="185" y="556" type="line"/>
		</contour>
		<contour>
			<point x="436" y="436" type="line"/>
			<point x="436" y="0" type="line"/>
			<point x="559" y="0" type="line"/>
			<point x="559" y="380" type="line" smooth="yes"/>
			<point x="559" y="498"/>
			<point x="525" y="559"/>
			<point x="404" y="559" type="curve" smooth="yes"/>
			<point x="362" y="559" type="line" smooth="yes"/>
			<point x="261" y="559"/>
			<point x="221" y="507"/>
			<point x="201" y="432" type="curve"/>
			<point x="185" y="432" type="line"/>
			<point x="201" y="329" type="line"/>
			<point x="201" y="419"/>
			<point x="248" y="436"/>
			<point x="332" y="436" type="curve" smooth="yes"/>
		</contour>
		<contour>
			<point x="793" y="436" type="line"/>
			<point x="793" y="0" type="line"/>
			<point x="916" y="0" type="line"/>
			<point x="916" y="380" type="line" smooth="yes"/>
			<point x="916" y="498"/>
			<point x="882" y="559"/>
			<point x="761" y="559" type="curve" smooth="yes"/>
			<point x="721" y="559" type="line" smooth="yes"/>
			<point x="620" y="559"/>
			<point x="580" y="507"/>
			<point x="560" y="432" type="curve"/>
			<point x="535" y="432" type="line"/>
			<point x="559" y="329" type="line"/>
			<point x="559" y="419"/>
			<point x="607" y="436"/>
			<point x="691" y="436" type="curve" smooth="yes"/>
		</contour>
	</outline>
</glyph>
<glyph name="n" format="2">
	<advance width="649"/>
	<unicode hex="006E"/>
	<anchor x="328" y="556" name="top"/>
	<anchor x="326" y="0" name="bottom"/>
	<outline>
		<contour>
			<point x="75" y="556" type="line"/>
			<point x="75" y="0" type="line"/>
			<point x="200" y="0" type="line"/>
			<point x="200" y="333" type="line"/>
			<point x="184" y="432" type="line"/>
			<point x="184" y="556" type="line"/>
		</contour>
		<contour>
			<point x="456" y="436" type="line"/>
			<point x="456" y="0" type="line"/>
			<point x="579" y="0" type="line"/>
			<point x="579" y="380" type="line" smooth="yes"/>
			<point x="579" y="498"/>
			<point x="521" y="559"/>
			<point x="400" y="559" type="curve" smooth="yes"/>
			<point x="358" y="559" type="line" smooth="yes"/>
			<point x="257" y="559"/>
			<point x="221" y="507"/>
			<point x="201" y="432" type="curve"/>
			<point x="184" y="432" type="line"/>
			<point x="200" y="333" type="line"/>
			<point x="200" y="423"/>
			<point x="268" y="436"/>
			<point x="352" y="436" type="curve" smooth="yes"/>
		</contour>
	</outline>
</glyph>
<glyph name="o" format="2">
	<advance width="654"/>
	<unicode hex="006F"/>
	<anchor x="327" y="278" name="center"/>
	<anchor x="586" y="-1" name="ogonek"/>
	<anchor x="346" y="568" name="top"/>
	<anchor x="612" y="556" name="topright"/>
	<anchor x="333" y="-13" name="bottom"/>
	<outline>
		<contour>
			<point x="180" y="119" type="line"/>
			<point x="180" y="341" type="line" smooth="yes"/>
			<point x="180" y="412"/>
			<point x="232" y="443"/>
			<point x="306" y="443" type="curve" smooth="yes"/>
			<point x="473" y="443" type="line"/>
			<point x="473" y="221" type="line" smooth="yes"/>
			<point x="473" y="150"/>
			<point x="421" y="119"/>
			<point x="347" y="119" type="curve" smooth="yes"/>
		</contour>
		<contour>
			<point x="51" y="218" type="line" smooth="yes"/>
			<point x="51" y="75"/>
			<point x="122" y="-4"/>
			<point x="257" y="-4" type="curve" smooth="yes"/>
			<point x="367" y="-4" type="line"/>
			<point x="512" y="-4"/>
			<point x="603" y="100"/>
			<point x="603" y="248" type="curve" smooth="yes"/>
			<point x="603" y="338" type="line" smooth="yes"/>
			<point x="603" y="482"/>
			<point x="528" y="566"/>
			<point x="377" y="566" type="curve" smooth="yes"/>
			<point x="286" y="566" type="line"/>
			<point x="141" y="566"/>
			<point x="51" y="462"/>
			<point x="51" y="314" type="curve" smooth="yes"/>
		</contour>
	</outline>
</glyph>
<glyph name="p" format="2">
	<advance width="668"/>
	<unicode hex="0070"/>
	<outline>
		<contour>
			<point x="82" y="556" type="line"/>
			<point x="82" y="-211" type="line"/>
			<point x="187" y="-211" type="line"/>
			<point x="187" y="99" type="line"/>
			<point x="208" y="117" type="line"/>
			<point x="208" y="354" type="line"/>
			<point x="194" y="435" type="line"/>
			<point x="194" y="556" type="line"/>
		</contour>
		<contour>
			<point x="171" y="119" type="line"/>
			<point x="171" y="-4" type="line"/>
			<point x="388" y="-4" type="line" smooth="yes"/>
			<point x="527" y="-4"/>
			<point x="617" y="100"/>
			<point x="617" y="248" type="curve" smooth="yes"/>
			<point x="617" y="380" type="line" smooth="yes"/>
			<point x="617" y="498"/>
			<point x="554" y="559"/>
			<point x="434" y="559" type="curve" smooth="yes"/>
			<point x="365" y="559" type="line" smooth="yes"/>
			<point x="265" y="559"/>
			<point x="232" y="507"/>
			<point x="211" y="435" type="curve"/>
			<point x="194" y="435" type="line"/>
			<point x="208" y="354" type="line"/>
			<point x="208" y="410"/>
			<point x="268" y="436"/>
			<point x="324" y="436" type="curve" smooth="yes"/>
			<point x="488" y="436" type="line"/>
			<point x="488" y="245" type="line" smooth="yes"/>
			<point x="488" y="150"/>
			<point x="433" y="119"/>
			<point x="365" y="119" type="curve" smooth="yes"/>
		</contour>
	</outline>
</glyph>
<glyph name="q" format="2">
	<advance width="662"/>
	<unicode hex="0071"/>
	<outline>
		<contour>
			<point x="585" y="556" type="line"/>
			<point x="460" y="556" type="line"/>
			<point x="460" y="186" type="line"/>
			<point x="476" y="129" type="line"/>
			<point x="476" y="-211" type="line"/>
			<point x="585" y="-211" type="line"/>
		</contour>
		<contour>
			<point x="204" y="373" type="line" smooth="yes"/>
			<point x="204" y="415"/>
			<point x="221" y="439"/>
			<point x="288" y="439" type="curve"/>
			<point x="467" y="439" type="line"/>
			<point x="498" y="556" type="line"/>
			<point x="498" y="556"/>
			<point x="407" y="556"/>
			<point x="270" y="556" type="curve" smooth="yes"/>
			<point x="133" y="556"/>
			<point x="81" y="481"/>
			<point x="81" y="374" type="curve" smooth="yes"/>
			<point x="81" y="175" type="line" smooth="yes"/>
			<point x="81" y="50"/>
			<point x="150" y="-6"/>
			<point x="260" y="-4" type="curve"/>
			<point x="302" y="-4" type="line"/>
			<point x="403" y="-4"/>
			<point x="439" y="48"/>
			<point x="459" y="123" type="curve"/>
			<point x="490" y="123" type="line"/>
			<point x="460" y="222" type="line"/>
			<point x="460" y="132"/>
			<point x="421" y="120"/>
			<point x="342" y="120" type="curve" smooth="yes"/>
			<point x="204" y="120" type="line"/>
		</contour>
	</outline>
</glyph>
<glyph name="r" format="2">
	<advance width="458"/>
	<unicode hex="0072"/>
	<outline>
		<contour>
			<point x="75" y="556" type="line"/>
			<point x="75" y="0" type="line"/>
			<point x="201" y="0" type="line"/>
			<point x="201" y="362" type="line"/>
			<point x="184" y="432" type="line"/>
			<point x="184" y="556" type="line"/>
		</contour>
		<contour>
			<point x="423" y="432" type="line"/>
			<point x="423" y="566" type="line"/>
			<point x="380" y="566" type="line" smooth="yes"/>
			<point x="281" y="566"/>
			<point x="223" y="513"/>
			<point x="201" y="432" type="curve"/>
			<point x="120" y="432" type="line"/>
			<point x="201" y="330" type="line"/>
			<point x="201" y="402"/>
			<point x="234" y="432"/>
			<point x="309" y="432" type="curve" smooth="yes"/>
		</contour>
	</outline>
</glyph>
<glyph name="t" format="2">
	<advance width="452"/>
	<unicode hex="0074"/>
	<outline>
		<contour>
			<point x="35" y="556" type="line"/>
			<point x="35" y="451" type="line"/>
			<point x="412" y="451" type="line"/>
			<point x="412" y="556" type="line"/>
		</contour>
		<contour>
			<point x="126" y="664" type="line"/>
			<point x="126" y="136" type="line" smooth="yes"/>
			<point x="126" y="42"/>
			<point x="172" y="-4"/>
			<point x="266" y="-4" type="curve" smooth="yes"/>
			<point x="401" y="-4" type="line"/>
			<point x="401" y="120" type="line"/>
			<point x="252" y="120" type="line"/>
			<point x="252" y="664" type="line"/>
		</contour>
	</outline>
</glyph>
<glyph name="u" format="2">
	<advance width="634"/>
	<unicode hex="0075"/>
	<outline>
		<contour>
			<point x="564" y="0" type="line"/>
			<point x="564" y="559" type="line"/>
			<point x="439" y="559" type="line"/>
			<point x="439" y="197" type="line"/>
			<point x="455" y="127" type="line"/>
			<point x="460" y="0" type="line"/>
		</contour>
		<contour>
			<point x="198" y="238" type="line"/>
			<point x="198" y="559" type="line"/>
			<point x="75" y="559" type="line"/>
			<point x="75" y="179" type="line" smooth="yes"/>
			<point x="75" y="61"/>
			<point x="120" y="0"/>
			<point x="232" y="0" type="curve" smooth="yes"/>
			<point x="281" y="0" type="line" smooth="yes"/>
			<point x="382" y="0"/>
			<point x="418" y="52"/>
			<point x="438" y="127" type="curve"/>
			<point x="455" y="127" type="line"/>
			<point x="439" y="230" type="line"/>
			<point x="439" y="140"/>
			<point x="371" y="127"/>
			<point x="287" y="127" type="curve" smooth="yes"/>
			<point x="199" y="127" type="line"/>
		</contour>
	</outline>
</glyph>
<glyph name="z" format="2">
	<advance width="483"/>
	<unicode hex="007A"/>
	<outline>
		<contour>
			<point x="481" y="0" type="line"/>
			<point x="481" y="101" type="line"/>
			<point x="123" y="101" type="line"/>
			<point x="123" y="123" type="line"/>
			<point x="510" y="387" type="line"/>
			<point x="473" y="318" type="line"/>
			<point x="472" y="556" type="line"/>
			<point x="30" y="556" type="line"/>
			<point x="30" y="455" type="line"/>
			<point x="377" y="455" type="line"/>
			<point x="377" y="430" type="line"/>
			<point x="-18" y="164" type="line"/>
			<point x="20" y="233" type="line"/>
			<point x="20" y="0" type="line"/>
		</contour>
	</outline>
</glyph>
